<?xml version="1.0" encoding="utf-8"?>
<!-- Generator: Adobe Illustrator 25.2.3, SVG Export Plug-In . SVG Version: 6.00 Build 0)  -->
<svg version="1.1" id="Слой_1" xmlns="http://www.w3.org/2000/svg" xmlns:xlink="http://www.w3.org/1999/xlink" x="0px" y="0px"
	 viewBox="0 0 32 33" style="enable-background:new 0 0 32 33;" xml:space="preserve">
<style type="text/css">
	.st0{fill:#FFFFFF;}
	.st1{fill-rule:evenodd;clip-rule:evenodd;}
	.st2{fill-rule:evenodd;clip-rule:evenodd;fill:#FFFFFF;}
</style>
<path class="st0" d="M24.3,33H7.7C3.45,33,0,29.55,0,25.3V7.7C0,3.45,3.45,0,7.7,0H24.3C28.55,0,32,3.45,32,7.7V25.3
	C32,29.55,28.55,33,24.3,33z"/>
<g id="Pasta_1">
	<path id="Layer_1_" d="M20.67,5.53c-0.74-0.34-1.57-0.59-2.51-0.76l-1.17-0.14L15.51,4.7c-0.7-0.04-1.37,0.03-1.99,0.22
		c-0.61,0.19-1.32,0.52-2.11,0.99c-0.62,0.37-1.2,0.91-1.73,1.61C9.4,7.89,9.19,8.2,9.05,8.46C8.87,8.77,8.67,9.22,8.47,9.81
		c-0.39,1.16-0.6,2.46-0.64,3.9c0.01,0.06-0.24,0.32-0.72,0.79c-0.48,0.48-0.72,0.74-0.72,0.78l0.57-0.06l0.67-0.16
		c-0.08,1.54-0.47,2.79-1.17,3.77c-0.34,0.48-0.64,0.81-0.91,0.99c0.59,0.01,1.09-0.09,1.5-0.3c0.22-0.1,0.37-0.2,0.45-0.31
		c-0.12,0.37-0.49,0.81-1.12,1.31l-0.79,0.6c0.52,0.07,1.04,0.04,1.55-0.09c0.48-0.13,0.91-0.33,1.29-0.61
		c0.16,0.96,0.39,1.83,0.67,2.59c0.38,1.06,0.84,1.78,1.39,2.18c0.05,0.04,0.07-0.03,0.06-0.22l-0.04-0.39l0.43,0.47
		c0.32,0.32,0.69,0.57,1.12,0.74l0.5,0.5l0.6,0.71c0.65,0.76,1.19,1.3,1.62,1.62c0.45,0.35,0.88,0.51,1.3,0.5
		c0.37,0,0.84-0.22,1.43-0.66l1.08-0.94l0.71-0.71l0.91-0.97c0.4-0.18,0.76-0.46,1.08-0.86c0.22-0.32,0.33-0.47,0.33-0.44
		c0.02,0.08,0.02,0.22-0.02,0.42c-0.06,0.24-0.09,0.42-0.09,0.53c0.38-0.25,0.72-0.59,1-0.99l0.3-0.54l0.1,0.35
		c0.03,0.16,0.06,0.27,0.11,0.35c0.24-0.38,0.5-0.88,0.78-1.48c0.54-1.14,0.85-2.12,0.93-2.93c0.09-0.91,0.07-1.68-0.04-2.31
		c-0.15-0.61-0.26-1.18-0.31-1.69c0.28,0.41,0.64,0.76,1.08,1.04c0.41,0.27,0.61,0.34,0.6,0.21L25,14.78
		c-0.24-0.73-0.4-1.53-0.47-2.4c-0.19-1.23-0.34-2.04-0.43-2.42c-0.17-0.64-0.45-1.31-0.83-2c-0.29-0.51-0.6-0.94-0.94-1.27
		C21.87,6.21,21.31,5.83,20.67,5.53z"/>
	<path id="Layer_2_" class="st0" d="M21.67,11.18c-1.54,0.81-2.99,1.42-4.37,1.84c-1.19,0.36-1.72,0.46-1.6,0.3l0.87-0.95
		c0.46-0.51,0.58-0.71,0.38-0.59c-1.38,0.82-2.89,1.46-4.54,1.92c-0.84,0.24-1.54,0.38-2.07,0.45c-0.08,0.95-0.13,1.63-0.14,2.04
		c0,0.36,0.02,0.82,0.07,1.37c0.04,0.38,0.14,0.78,0.28,1.19l0.26,0.83c0.07,0.38,0.12,1.16,0.16,2.35c0.03,0.94,0.12,1.6,0.29,1.99
		c0.22,0.5,0.65,1.11,1.3,1.84l1.24,1.31l0.91,0.97c0.47,0.44,0.92,0.66,1.37,0.66c0.31,0,0.67-0.15,1.08-0.46l0.86-0.76
		c0.6-0.54,1.11-1.07,1.55-1.58c0.6-0.68,1-1.27,1.22-1.79c0.14-0.36,0.26-1.04,0.36-2.05c0.08-1.04,0.24-1.88,0.48-2.53
		c0.21-0.55,0.35-1.05,0.42-1.5l0.04-0.45c0.07-0.56,0.12-1.59,0.14-3.08l0.03-1.97C22.26,11.41,22.06,10.98,21.67,11.18z"/>
	<path id="Layer_3_" class="st0" d="M10.13,18.69L9.75,16.7c-0.1,0.03-0.16,0.08-0.2,0.17c-0.09,0.19-0.05,0.49,0.12,0.9
		C9.78,18.07,9.93,18.37,10.13,18.69z"/>
	<path id="Layer_4_" class="st0" d="M9.34,15.86c-0.19-0.12-0.3,0.13-0.32,0.76l0.12,0.73c0.11,0.52,0.21,0.9,0.31,1.15
		c0.11,0.23,0.28,0.48,0.52,0.77l0.35,0.34l-0.15-0.73c-0.2-0.31-0.36-0.63-0.5-0.96c-0.22-0.51-0.28-0.88-0.17-1.09
		c0.05-0.11,0.14-0.17,0.25-0.2L9.63,16.2C9.54,16.02,9.45,15.9,9.34,15.86z"/>
	<path id="Layer_5_" class="st0" d="M22.65,16.7l-0.38,1.99c0.53-0.9,0.72-1.51,0.58-1.82C22.81,16.79,22.74,16.73,22.65,16.7z"/>
	<path id="Layer_6_" class="st0" d="M23.04,15.86l-0.29,0.35l-0.1,0.43c0.16,0.05,0.26,0.16,0.3,0.34c0.03,0.24-0.05,0.59-0.25,1.05
		c-0.15,0.34-0.3,0.63-0.47,0.88l-0.16,0.71l0.34-0.34c0.25-0.28,0.42-0.53,0.53-0.77c0.15-0.36,0.3-0.99,0.44-1.89
		C23.34,15.99,23.23,15.74,23.04,15.86z"/>
	<path id="Layer_7_" d="M15.89,23.67c-1.07-0.19-1.76-0.29-2.08-0.29c-0.08,0-0.47,0.12-1.19,0.36c-0.7,0.24-1.25,0.33-1.68,0.27
		c-0.13-0.01,0.15,0.42,0.84,1.32c0.7,0.92,1.27,1.5,1.73,1.76c0.53,0.27,0.87,0.44,1.04,0.5c0.55,0.23,1.07,0.34,1.57,0.34
		c0.58,0.01,1.19-0.14,1.84-0.45c0.61-0.29,1.16-0.67,1.63-1.14c0.6-0.6,1.01-1.08,1.23-1.45l-2.88-1.3
		c-0.15-0.07-0.55-0.08-1.18-0.03L15.89,23.67z"/>
	<path id="Layer_8_" class="st0" d="M11.49,24.47l0.33,0.45c0.29,0.36,0.6,0.69,0.94,0.98c1.08,0.96,2.22,1.42,3.39,1.4
		c1.05-0.01,2.06-0.38,3.05-1.12c0.49-0.36,0.87-0.73,1.13-1.09l-1.87,0.03l-2.1,0.42c-1.12-0.32-1.93-0.53-2.43-0.63L11.49,24.47z"
		/>
	<path id="Layer_9_" class="st0" d="M15.58,23.99c-0.92-0.2-1.68-0.23-2.3-0.09l-0.63,0.18l-0.63,0.1l4.33,0.78l0.61-0.08l0.84-0.13
		l1.61-0.05c-0.84-0.41-1.44-0.66-1.79-0.74c-0.32-0.07-0.66-0.07-1.02-0.01L15.58,23.99z"/>
	<path id="Layer_10_" class="st0" d="M16,25.07l0.68,0.01l0.07-2.2l-1.03-0.18L16,25.07z"/>
	<path id="Layer_11_" d="M15.19,17.59l0.19,0.96c0.13,0.79,0.2,1.48,0.2,2.06v1.48l-0.23,0.21c-0.15,0.17-0.22,0.36-0.2,0.58
		c0.03,0.21,0.12,0.48,0.29,0.81l0.34,0.7c0.11,0.38,0.17,0.69,0.17,0.92h0.92l-0.01-0.67c0-0.47,0.05-0.78,0.16-0.93
		c0.11-0.15,0.16-0.4,0.14-0.76c-0.03-0.36-0.12-0.64-0.26-0.83L17,20.32l0.15-1.97v-0.81l-0.39,0.08l0.03,1.25l-0.18,4.81
		l-0.03,1.28l-0.45-0.01l-0.1-0.94c-0.07-0.63-0.11-0.99-0.11-1.08c-0.01-2.04-0.05-3.35-0.13-3.9l-0.16-1.43L15.19,17.59z"/>
	<path id="Layer_12_" class="st0" d="M15.6,22.44c-0.11,0.1-0.17,0.2-0.18,0.32c-0.01,0.08,0.01,0.19,0.06,0.32
		c0.04,0.13,0.11,0.28,0.2,0.43L15.6,22.44z"/>
	<path id="Layer_13_" d="M21.34,17.66c0.06-0.57-0.14-1.07-0.61-1.51c-0.45-0.42-0.99-0.63-1.63-0.63c-0.63,0-1.18,0.21-1.63,0.63
		c-0.47,0.43-0.7,0.92-0.7,1.48c0,0.59,0.23,1.09,0.7,1.5c0.45,0.39,1,0.59,1.63,0.59c0.61,0,1.13-0.19,1.55-0.58
		C21.06,18.75,21.29,18.26,21.34,17.66z"/>
	<path id="Layer_14_" class="st0" d="M20.98,17.49c0-0.52-0.19-0.98-0.55-1.36c-0.38-0.37-0.84-0.56-1.37-0.56s-0.99,0.19-1.38,0.58
		c-0.38,0.37-0.58,0.82-0.58,1.35c0,0.53,0.19,0.98,0.58,1.35c0.38,0.37,0.84,0.55,1.38,0.55s0.99-0.19,1.37-0.55
		C20.79,18.47,20.98,18.02,20.98,17.49z"/>
	<path id="Layer_15_" d="M15.46,17.56c0-0.59-0.22-1.09-0.67-1.51s-0.98-0.63-1.6-0.63c-0.61,0-1.15,0.21-1.61,0.63
		c-0.44,0.41-0.66,0.92-0.66,1.51c0,0.6,0.22,1.11,0.66,1.52c0.44,0.42,0.98,0.63,1.61,0.63c0.63,0,1.16-0.21,1.6-0.63
		C15.24,18.66,15.46,18.16,15.46,17.56z"/>
	<path id="Layer_16_" class="st0" d="M15.1,17.49c0-0.54-0.19-0.99-0.56-1.35c-0.37-0.37-0.83-0.56-1.35-0.56
		c-0.53,0-0.99,0.19-1.36,0.56c-0.37,0.36-0.56,0.81-0.56,1.35c0,0.53,0.19,0.98,0.56,1.33c0.37,0.36,0.83,0.55,1.36,0.55
		c0.53,0,0.98-0.18,1.35-0.55C14.91,18.47,15.1,18.02,15.1,17.49z"/>
</g>
<g id="Pasta_1_2_">
	<path id="Layer_28_" d="M21.34,17.66c0.06-0.58-0.15-1.08-0.61-1.51c-0.45-0.42-1-0.63-1.63-0.63c-0.62,0-1.17,0.21-1.63,0.63
		c-0.46,0.42-0.69,0.91-0.69,1.48c0,0.59,0.23,1.09,0.69,1.49c0.46,0.4,1,0.6,1.63,0.6c0.62,0,1.14-0.19,1.55-0.58
		C21.05,18.76,21.28,18.27,21.34,17.66z"/>
	<path id="Layer_27_" class="st0" d="M20.98,17.49c0-0.53-0.19-0.98-0.56-1.35c-0.38-0.37-0.84-0.56-1.37-0.56s-0.99,0.19-1.38,0.56
		c-0.38,0.38-0.58,0.83-0.58,1.36s0.19,0.98,0.58,1.35c0.38,0.37,0.84,0.55,1.38,0.55s0.99-0.19,1.37-0.55
		C20.8,18.47,20.98,18.02,20.98,17.49z"/>
	<path id="Layer_26_" d="M20.14,17.7c0-0.29-0.1-0.53-0.31-0.73c-0.21-0.21-0.46-0.31-0.76-0.31c-0.29,0-0.54,0.1-0.75,0.31
		c-0.21,0.2-0.32,0.45-0.32,0.73c0,0.28,0.11,0.53,0.32,0.73c0.21,0.2,0.46,0.3,0.75,0.3c0.29,0,0.54-0.1,0.76-0.3
		C20.04,18.22,20.14,17.98,20.14,17.7z"/>
	<path id="Layer_25_" d="M21.61,17.79c0.01-0.4-0.08-0.8-0.27-1.2c-0.38-0.8-1.06-1.2-2.04-1.2c-1.08-0.01-1.83,0.37-2.24,1.12
		c-0.2,0.37-0.3,0.75-0.29,1.12l0.61-0.19c0.55-0.13,1.16-0.19,1.84-0.17c0.7,0.02,1.36,0.13,1.97,0.35l0.03,0.11L21.61,17.79z"/>
	<path id="Layer_24_" class="st0" d="M20.72,17.14c0.24,0.06,0.42,0.12,0.55,0.18c-0.05-0.27-0.17-0.54-0.35-0.81
		c-0.37-0.55-0.9-0.83-1.59-0.85c-0.77-0.02-1.37,0.23-1.79,0.74c-0.21,0.26-0.34,0.52-0.4,0.78l0.54-0.14l1.5-0.11
		C19.73,16.96,20.25,17.02,20.72,17.14z"/>
	<path id="Layer_23_" d="M15.46,17.57c0-0.59-0.22-1.09-0.66-1.51c-0.44-0.42-0.98-0.63-1.61-0.63c-0.63,0-1.16,0.21-1.61,0.63
		c-0.45,0.42-0.67,0.92-0.67,1.51s0.22,1.09,0.67,1.51c0.44,0.42,0.98,0.63,1.61,0.63c0.63,0,1.16-0.21,1.61-0.63
		C15.24,18.66,15.46,18.16,15.46,17.57z"/>
	<path id="Layer_22_" class="st0" d="M15.11,17.49c0-0.53-0.19-0.98-0.56-1.35c-0.37-0.37-0.83-0.56-1.36-0.56
		c-0.53,0-0.98,0.19-1.36,0.56c-0.37,0.37-0.56,0.82-0.56,1.35c0,0.52,0.19,0.97,0.56,1.33c0.38,0.37,0.83,0.55,1.36,0.55
		c0.53,0,0.99-0.19,1.36-0.55C14.92,18.46,15.11,18.01,15.11,17.49z"/>
	<path id="Layer_21_" d="M14.19,17.69c0-0.28-0.1-0.53-0.31-0.73c-0.21-0.2-0.46-0.3-0.75-0.3c-0.29,0-0.54,0.1-0.75,0.3
		c-0.21,0.2-0.31,0.44-0.31,0.73c0,0.28,0.1,0.53,0.31,0.73c0.21,0.2,0.46,0.3,0.75,0.3c0.29,0,0.54-0.1,0.75-0.3
		S14.19,17.97,14.19,17.69z"/>
	<path id="Layer_20_" d="M11.21,16.51c-0.2,0.37-0.29,0.75-0.29,1.12l0.71-0.17c0.58-0.11,1.13-0.16,1.65-0.15
		c0.53,0.01,1.08,0.1,1.67,0.25l0.72,0.22c-0.01-0.4-0.12-0.79-0.32-1.19c-0.4-0.8-1.09-1.2-2.05-1.2
		C12.29,15.4,11.6,15.77,11.21,16.51z"/>
	<path id="Layer_19_" class="st0" d="M14.82,17.16l0.51,0.17c-0.03-0.27-0.13-0.55-0.32-0.83c-0.36-0.56-0.92-0.84-1.67-0.86
		c-0.79-0.01-1.37,0.24-1.74,0.77c-0.19,0.26-0.3,0.53-0.32,0.79l0.55-0.12l1.43-0.12C13.84,16.98,14.36,17.04,14.82,17.16z"/>
</g>
<g id="Pasta_1_1_">
	<path id="Layer_18_" d="M15.33,14.74l-1.18-0.04c-0.92,0.04-1.72,0.24-2.39,0.6l-0.03,0.19c-0.44,0.14-0.84,0.22-1.17,0.24h-0.38
		l-0.01,0.27h0.54c0.45-0.02,0.91-0.11,1.38-0.24c0.65-0.19,1.39-0.26,2.23-0.21c0.42,0.03,0.78,0.07,1.07,0.14L15.33,14.74z"/>
	<path id="Layer_17_" d="M21.14,14.51l-0.54-0.14l-0.05-0.22c-0.89-0.17-1.73-0.17-2.55-0.04l-0.96,0.27l-0.01,0.99
		c1.14-0.55,2.39-0.74,3.73-0.55c0.67,0.09,1.22,0.24,1.66,0.45l-0.04-0.31C21.98,14.79,21.57,14.64,21.14,14.51z"/>
</g>
<g transform="matrix(1.0, 0.0, 0.0, 1.0, 0.0, 0.0)">
	<path class="st1" d="M15.8,15.35l2.75,0.03c1.45,0.06,2.68,0.2,3.67,0.4c0.12,0.2,0.16,1.03,0.12,2.5l-0.1,0.54
		c-0.11,0.39-0.25,0.66-0.45,0.81c-0.19,0.15-0.42,0.26-0.7,0.34l-0.6,0.09l-0.78-0.04l-0.57-0.04l-0.56-0.09
		c-0.42-0.11-0.73-0.25-0.93-0.44c-0.23-0.22-0.44-0.48-0.6-0.78l-0.37-0.76l-0.22-0.45c-0.04-0.05-0.11-0.08-0.2-0.08h-0.01
		c-0.1,0-0.17,0.03-0.2,0.08l-0.22,0.45l-0.38,0.76c-0.17,0.3-0.37,0.56-0.6,0.78c-0.2,0.19-0.5,0.33-0.92,0.44l-0.57,0.09
		l-1.34,0.08l-0.6-0.09c-0.28-0.08-0.52-0.19-0.7-0.34s-0.34-0.42-0.45-0.81l-0.1-0.54c-0.05-1.45-0.01-2.28,0.12-2.5
		c0.99-0.21,2.22-0.34,3.67-0.4C14.65,15.35,15.27,15.34,15.8,15.35"/>
</g>
<g transform="matrix(1.0, 0.0, 0.0, 1.0, 0.0, 0.0)">
	<path class="st1" d="M18.03,13.15l-0.76,0.24c-0.5,0.14-1.05,0.25-1.67,0.34l-3.16,0.49L10.3,14.5c-0.52,0.04-1.11,0-1.78-0.13
		c-0.59-0.11-0.9-0.21-0.95-0.29c-0.03-0.05-0.07-0.24-0.1-0.56l-0.04-0.67c-0.01-0.14,0.04-1.05,0.16-2.71
		C7.7,8.46,7.77,7.45,7.82,7.1c0.04-0.32,0.17-0.65,0.41-0.99c0.19-0.28,0.39-0.5,0.6-0.65C9.08,5.28,9.37,5.1,9.72,4.93
		c0.5-0.25,1.01-0.45,1.55-0.59C11.84,4.18,12.35,4.07,12.8,4l1.35-0.16l2.61-0.11l1.12,0.08l0.99,0.16
		c0.92,0.17,1.59,0.37,2.02,0.59c0.37,0.21,0.78,0.61,1.21,1.22l0.46,0.74l0.55,0.96c0.18,0.34,0.54,1.29,1.07,2.84
		c0.12,0.09,0.72,0.34,1.79,0.75c1.06,0.42,1.61,0.64,1.65,0.67c0.1,0.07,0.14,0.16,0.11,0.26l-0.07,0.13
		c-0.38,0.38-0.79,0.67-1.24,0.88c-0.85,0.41-1.98,0.65-3.36,0.72c-1.56,0.05-2.86-0.03-3.91-0.24l-0.63-0.19l0.55-0.21
		c1-0.39,1.79-0.72,2.37-1c0.81-0.39,1.33-0.65,1.57-0.79l0.04-0.02l0.09-0.1c0.01-0.04,0.01-0.07-0.01-0.11
		c-0.02-0.05-0.07-0.08-0.13-0.08L22.92,11L22.91,11l-1.6,0.81c-0.68,0.33-1.55,0.69-2.59,1.08L18.03,13.15"/>
	<path class="st2" d="M18.03,13.15l0.68-0.26c1.05-0.39,1.91-0.75,2.59-1.08l1.6-0.81L22.92,11l0.06-0.01
		c0.06,0,0.11,0.03,0.13,0.08c0.02,0.03,0.02,0.07,0.01,0.11l-0.09,0.1L23,11.29c-0.23,0.13-0.76,0.4-1.57,0.79
		c-0.58,0.28-1.37,0.62-2.37,1l-0.55,0.21l-0.06,0.02l-0.31-0.11L18.03,13.15"/>
</g>
</svg>
